<svg xmlns="http://www.w3.org/2000/svg" width="52.03mm" height="13.04mm" viewBox="0 0 147.49 36.97"><title>logo</title><path d="M142.45,18.57h-11.1l.1-1a6.56,6.56,0,0,1,6.33-5.55,4.7,4.7,0,0,1,4.78,5.55Zm4.92-1a8.77,8.77,0,0,0-8.88-10.38,12.38,12.38,0,0,0-11.88,10.38l-1.26,8.93c-.82,5.89,3.86,10.38,9.41,10.38a12.47,12.47,0,0,0,8.45-3.19A4.53,4.53,0,0,0,144,33a3.13,3.13,0,0,0,.68-1.4,2.2,2.2,0,0,0-2.17-2.41,2.81,2.81,0,0,0-2.12,1.11,7,7,0,0,1-4.92,1.83,5.08,5.08,0,0,1-5.26-5.55l.43-3.14h13.52A2.89,2.89,0,0,0,146.89,21Zm-25.22,16.8A1.91,1.91,0,0,0,121,32.24c-1.3-.92-1.45-2.75-1.26-4.35l3.4-25.26A2,2,0,0,0,121,.21a2.74,2.74,0,0,0-2.75,2.41l-3.4,25.26c-.43,3.23.24,6.56,2.8,8.35a4.34,4.34,0,0,0,.92.53,3.09,3.09,0,0,0,.92.19,2.89,2.89,0,0,0,2.65-2.56M102,12.05a4.7,4.7,0,0,1,4.78,5.55l-1.26,8.93a6.56,6.56,0,0,1-6.32,5.55,4.7,4.7,0,0,1-4.78-5.55l1.26-8.93A6.56,6.56,0,0,1,102,12.05M97.77,2.63A2,2,0,0,0,95.69.21a2.74,2.74,0,0,0-2.75,2.41L89.59,26.54a8.82,8.82,0,0,0,8.93,10.38,12.29,12.29,0,0,0,11.83-10.38l1.25-8.93a8.77,8.77,0,0,0-8.88-10.38A9.7,9.7,0,0,0,96.83,9.3ZM78.2,34a2,2,0,0,0,2.08,2.41A2.77,2.77,0,0,0,83,34l3.33-23.9a2,2,0,0,0-2.08-2.41,2.77,2.77,0,0,0-2.75,2.41ZM81.8,3.12a2.68,2.68,0,0,0,2.7,3.12A3.73,3.73,0,0,0,88,3.12,2.63,2.63,0,0,0,85.39,0a3.83,3.83,0,0,0-3.6,3.12M64.53,26.25l4.59,9.08a1.87,1.87,0,0,0,1.74,1.16,3,3,0,0,0,2.9-2.41,2,2,0,0,0-.24-1.35L68,21.81l8.16-10.38a2.46,2.46,0,0,0,.63-1.35,2.16,2.16,0,0,0-2.22-2.42A2.66,2.66,0,0,0,72.5,8.82l-6.71,8.55ZM43.71,18.62H32.61l.1-1A6.56,6.56,0,0,1,39,12.1a4.7,4.7,0,0,1,4.78,5.55Zm4.92-1A8.77,8.77,0,0,0,39.75,7.28,12.38,12.38,0,0,0,27.87,17.66l-1.26,8.93C25.8,32.48,30.48,37,36,37a12.48,12.48,0,0,0,8.45-3.19,4.54,4.54,0,0,0,.77-.77,3.13,3.13,0,0,0,.68-1.4,2.2,2.2,0,0,0-2.17-2.41,2.82,2.82,0,0,0-2.12,1.11,7,7,0,0,1-4.92,1.83,5.08,5.08,0,0,1-5.26-5.55l.43-3.14H45.4A2.89,2.89,0,0,0,48.15,21Zm-25.57,0A8.77,8.77,0,0,0,14.18,7.28,12.38,12.38,0,0,0,2.3,17.66L0,34.07a2,2,0,0,0,2.08,2.41,2.77,2.77,0,0,0,2.75-2.41L7.13,17.66a6.56,6.56,0,0,1,6.33-5.55,4.7,4.7,0,0,1,4.78,5.55L16,34.07A2,2,0,0,0,18,36.48a2.77,2.77,0,0,0,2.75-2.41Z" fill="#fff"/><path d="M61.93,17.41l-4.3-8.55A2,2,0,0,0,55.8,7.71,3,3,0,0,0,53,10.12a2.67,2.67,0,0,0,.24,1.35l5.21,10.38L49.86,32.77a3.42,3.42,0,0,0-.63,1.35,2.15,2.15,0,0,0,2.17,2.41,2.82,2.82,0,0,0,2.17-1.16l7.1-9.08Z" fill="#678ec9"/></svg>